<svg width="283" height="161" viewBox="0 0 283 161" fill="none" xmlns="http://www.w3.org/2000/svg">
<path d="M90.45 71.432H99.026V130.696H90.45V71.432ZM51.09 80.328H86.162V87.048H51.09V80.328ZM68.69 90.312C77.458 90.312 83.922 96.2 83.922 104.456C83.922 112.712 77.458 118.6 68.69 118.6C59.922 118.6 53.522 112.712 53.522 104.456C53.522 96.2 59.922 90.312 68.69 90.312ZM68.69 97.224C64.594 97.224 61.65 99.912 61.65 104.456C61.65 109 64.594 111.688 68.69 111.688C72.786 111.688 75.73 109 75.73 104.456C75.73 99.912 72.786 97.224 68.69 97.224ZM64.338 72.264H72.914V84.488H64.338V72.264ZM149.773 71.368H158.285V130.824H149.773V71.368ZM140.045 83.976H151.181V90.824H140.045V83.976ZM110.733 110.664H115.405C124.173 110.664 131.469 110.472 139.981 109.192L140.685 116.104C131.981 117.448 124.429 117.64 115.405 117.64H110.733V110.664ZM110.605 76.36H137.101V99.336H119.181V112.2H110.733V92.616H128.717V83.144H110.605V76.36ZM139.917 100.104H151.053V106.952H139.917V100.104ZM190.024 89.096H198.472V97.352H190.024V89.096ZM188.488 75.656H195.912V77.128C195.912 85.192 187.784 91.4 172.424 92.424L169.8 86.088C182.792 85.384 188.488 81.096 188.488 77.128V75.656ZM192.84 75.656H200.2V77.128C200.2 81.096 205.832 85.384 218.888 86.088L216.264 92.424C200.968 91.4 192.84 85.256 192.84 77.128V75.656ZM172.424 72.904H216.328V79.368H172.424V72.904ZM172.36 107.144H216.2V113.544H172.36V107.144ZM167.56 94.472H221.256V101.192H167.56V94.472ZM194.248 115.272C205.704 115.272 212.36 118.024 212.36 123.08C212.36 128.2 205.704 130.888 194.248 130.888C182.792 130.888 176.136 128.2 176.136 123.08C176.136 118.024 182.792 115.272 194.248 115.272ZM194.248 120.84C188.04 120.84 184.968 121.416 184.968 123.08C184.968 124.68 188.04 125.32 194.248 125.32C200.456 125.32 203.528 124.68 203.528 123.08C203.528 121.416 200.456 120.84 194.248 120.84ZM190.024 102.984H198.536V110.984H190.024V102.984ZM226.499 116.936H280.131V123.848H226.499V116.936ZM249.027 103.816H257.539V118.856H249.027V103.816ZM248.771 79.176H255.939V81.288C255.939 93.768 246.979 103.688 231.875 106.44L228.547 99.72C241.731 97.672 248.771 89.48 248.771 81.288V79.176ZM250.499 79.176H257.667V81.288C257.667 89.48 264.707 97.416 278.211 99.4L274.947 106.12C259.587 103.432 250.499 93.768 250.499 81.288V79.176ZM230.915 75.912H275.523V82.696H230.915V75.912Z" fill="#1D503D"/>
<path d="M4.9495 122.968C6.6135 122.648 8.2135 122.328 9.7495 122.008C11.3495 121.688 12.9175 121.368 14.4535 121.048C14.4535 118.36 14.6135 115.256 14.9335 111.736C15.3175 108.152 16.0535 104.056 17.1415 99.448C16.4375 99.768 15.7335 100.056 15.0295 100.312C14.3895 100.504 13.7495 100.664 13.1095 100.792C12.4695 100.92 12.0215 100.952 11.7655 100.888L10.4215 100.504C9.7815 100.376 9.1735 100.344 8.5975 100.408C8.0855 100.408 7.6375 100.088 7.2535 99.448C7.1255 99.192 6.9335 98.744 6.6775 98.104C6.4855 97.4 6.3255 96.888 6.1975 96.568C5.3015 92.152 5.6215 88.312 7.1575 85.048C8.7575 81.72 11.2855 79.224 14.7415 77.56C15.1895 77.496 15.7655 77.496 16.4695 77.56C16.7895 77.624 17.0135 77.72 17.1415 77.848C17.2695 77.976 17.4615 78.104 17.7175 78.232C17.8455 78.36 18.0055 78.456 18.1975 78.52L18.9655 78.808C19.2215 78.872 19.4135 78.968 19.5415 79.096C19.7335 79.224 19.7975 79.32 19.7335 79.384C19.5415 79.64 19.3815 79.928 19.2535 80.248C19.1255 80.504 18.8695 80.824 18.4855 81.208C16.6935 83 15.1575 85.144 13.8775 87.64C12.5975 90.136 11.7015 92.728 11.1895 95.416C12.4695 95.416 13.7815 95.192 15.1255 94.744C16.5335 94.296 17.8455 93.72 19.0615 93.016C20.3415 92.248 21.4615 91.416 22.4215 90.52C23.3815 89.624 24.0855 88.728 24.5335 87.832C24.5335 87.192 24.2775 86.648 23.7655 86.2C23.2535 85.752 22.6455 85.4 21.9415 85.144C21.3015 84.888 20.6295 84.728 19.9255 84.664C19.2215 84.536 18.6775 84.472 18.2935 84.472C18.5495 83.896 18.9015 83.32 19.3495 82.744C19.6695 82.296 20.0215 81.88 20.4055 81.496C20.7895 81.112 21.2375 80.92 21.7495 80.92C22.1975 80.92 22.7095 80.952 23.2855 81.016C23.8615 81.016 24.4055 81.08 24.9175 81.208C25.4295 81.272 25.8775 81.432 26.2615 81.688C26.6455 81.88 26.8375 82.2 26.8375 82.648C27.6695 83.672 28.0535 84.856 27.9895 86.2C27.9895 87.48 27.6375 88.824 26.9335 90.232C26.2935 91.576 25.3655 92.92 24.1495 94.264C22.9335 95.544 21.5575 96.696 20.0215 97.72C19.8935 102.008 19.6055 106.04 19.1575 109.816C18.7095 113.528 18.2295 117.016 17.7175 120.28C21.9415 119.32 26.1655 118.264 30.3895 117.112C34.6775 115.96 39.4455 114.552 44.6935 112.888C44.8215 112.824 45.0135 112.76 45.2695 112.696C45.5255 112.632 45.7175 112.664 45.8455 112.792C45.8455 112.856 45.6215 113.112 45.1735 113.56L44.5975 114.136C44.5335 114.2 44.4695 114.264 44.4055 114.328C44.4055 114.392 44.3735 114.456 44.3095 114.52C44.2455 114.648 44.0215 115 43.6375 115.576C43.2535 116.152 42.9655 116.504 42.7735 116.632C39.8295 118.424 36.7255 119.992 33.4615 121.336C30.2615 122.68 27.0295 123.864 23.7655 124.888C20.5015 125.912 17.2695 126.776 14.0695 127.48C10.8695 128.184 7.8295 128.76 4.9495 129.208C4.5655 129.272 4.1175 129.336 3.6055 129.4C3.0935 129.4 2.8375 129.272 2.8375 129.016C2.7735 128.696 2.7735 128.312 2.8375 127.864C2.9015 127.416 2.9335 127 2.9335 126.616C2.9335 126.232 3.0615 125.88 3.3175 125.56C3.6375 125.24 3.8935 124.92 4.0855 124.6C4.2775 124.28 4.4375 123.96 4.5655 123.64C4.6935 123.32 4.8215 123.096 4.9495 122.968Z" fill="#1D503D"/>
<g clip-path="url(#clip0_118_2)">
<mask id="mask0_118_2" style="mask-type:luminance" maskUnits="userSpaceOnUse" x="110" y="16" width="64" height="33">
<path d="M173.247 16.1917H110.999V48.4402H173.247V16.1917Z" fill="white"/>
</mask>
<g mask="url(#mask0_118_2)">
<path d="M162.487 44.2173V44.7943H163.037V45.37H163.586V45.9471H164.135V46.524H163.586V47.1014H163.037V47.6783H162.487V48.2553H161.388V47.6795H161.938V47.1025H162.487V46.5251H163.037V45.9482H162.487V45.37H161.938V44.7943H161.388V44.2173H162.487Z" fill="#E8344E"/>
<path d="M160.729 44.2686H159.772V44.825H159.231V45.392H158.719V45.9491H158.178V46.5154H157.666V47.0724H157.125V47.6393H156.613V48.2057H157.57V47.6393H158.082V47.0824H158.624V46.5154H159.135V45.959H159.676V45.392H160.188V44.8351H160.729V44.2686Z" fill="#E8344E"/>
<path d="M150.722 48.2564V47.6795H150.173V47.1025H149.623V46.5251H149.074V45.9482H149.623V45.37H150.173V44.7943H150.722V44.2173H151.821V44.7943H151.272V45.37H150.722V45.9471H150.173V46.524H150.722V47.1014H151.272V47.6783H151.821V48.2552L150.722 48.2564Z" fill="#E8344E"/>
<path d="M164.635 16.1917L114.715 26.0016L110.999 38.2139L119.406 47.9242L152.473 41.4291L154.318 48.4402L162.716 39.417L169.325 38.1186L173.041 25.9019L164.635 16.1917Z" fill="#E8344E"/>
<path d="M117.724 35.49V34.3562H116.68V33.2222H118.884L118.939 34.3562H121.84V32.086H117.724V30.9544H116.735V28.6843H117.724V27.5532H123.115V28.687H124.104V29.821H121.901V28.687H118.941V30.9572H123.116V32.0882H124.105V34.3583H123.116V35.4922L117.724 35.49Z" fill="white"/>
<path d="M134.522 35.49V29.821H135.296V28.687H136.421V27.5532H139.797V28.687H140.922V29.821H141.696V35.49H139.797V33.22H136.421V35.49H134.522ZM136.421 32.0882H139.797V29.8182H138.672V28.687H137.547V29.821H136.421V32.0882Z" fill="white"/>
<path d="M160.497 35.49V29.821H161.271V28.687H162.396V27.5532H165.771V28.687H166.896V29.821H167.67V35.49H165.771V33.22H162.395V35.49H160.497ZM162.395 32.0882H165.771V29.8182H164.646V28.687H163.524V29.821H162.395V32.0882Z" fill="white"/>
<path d="M154.795 35.49V28.687H152.426V27.5532H159.177V28.687H156.869V35.49H154.795Z" fill="white"/>
<path d="M132.207 28.687V27.5532H126.895V28.6971H126.094V35.49H127.874V32.0705H132.207V30.9367H132.89V28.687H132.207ZM131.141 30.9367H127.874V28.687H131.138L131.141 30.9367Z" fill="white"/>
<path d="M150.108 34.3562V33.2222H148.983V31.911H150.042V30.9283H150.882V28.687H150.108V27.5532H144.691V28.6971H143.882V35.49H145.723V32.0888H147.019V33.3561H147.973V34.3472H148.992L148.985 35.49H151.234V34.3562H150.108ZM145.723 30.9555V28.6855H148.985V29.8199L148.992 30.9538L145.723 30.9555Z" fill="white"/>
</g>
</g>
<defs>
<clipPath id="clip0_118_2">
<rect width="62" height="62" fill="white" transform="translate(111)"/>
</clipPath>
</defs>
</svg>
