<svg width="112" height="46" viewBox="0 0 112 46" fill="none" xmlns="http://www.w3.org/2000/svg">
<path d="M36.8789 10.075H40.2289V33.225H36.8789V10.075ZM21.5039 13.55H35.2039V16.175H21.5039V13.55ZM28.3789 17.45C31.8039 17.45 34.3289 19.75 34.3289 22.975C34.3289 26.2 31.8039 28.5 28.3789 28.5C24.9539 28.5 22.4539 26.2 22.4539 22.975C22.4539 19.75 24.9539 17.45 28.3789 17.45ZM28.3789 20.15C26.7789 20.15 25.6289 21.2 25.6289 22.975C25.6289 24.75 26.7789 25.8 28.3789 25.8C29.9789 25.8 31.1289 24.75 31.1289 22.975C31.1289 21.2 29.9789 20.15 28.3789 20.15ZM26.6789 10.4H30.0289V15.175H26.6789V10.4ZM60.052 10.05H63.377V33.275H60.052V10.05ZM56.252 14.975H60.602V17.65H56.252V14.975ZM44.802 25.4H46.627C50.052 25.4 52.902 25.325 56.227 24.825L56.502 27.525C53.102 28.05 50.152 28.125 46.627 28.125H44.802V25.4ZM44.752 12H55.102V20.975H48.102V26H44.802V18.35H51.827V14.65H44.752V12ZM56.202 21.275H60.552V23.95H56.202V21.275ZM75.775 16.975H79.075V20.2H75.775V16.975ZM75.175 11.725H78.075V12.3C78.075 15.45 74.9 17.875 68.9 18.275L67.875 15.8C72.95 15.525 75.175 13.85 75.175 12.3V11.725ZM76.875 11.725H79.75V12.3C79.75 13.85 81.95 15.525 87.05 15.8L86.025 18.275C80.05 17.875 76.875 15.475 76.875 12.3V11.725ZM68.9 10.65H86.05V13.175H68.9V10.65ZM68.875 24.025H86V26.525H68.875V24.025ZM67 19.075H87.975V21.7H67V19.075ZM77.425 27.2C81.9 27.2 84.5 28.275 84.5 30.25C84.5 32.25 81.9 33.3 77.425 33.3C72.95 33.3 70.35 32.25 70.35 30.25C70.35 28.275 72.95 27.2 77.425 27.2ZM77.425 29.375C75 29.375 73.8 29.6 73.8 30.25C73.8 30.875 75 31.125 77.425 31.125C79.85 31.125 81.05 30.875 81.05 30.25C81.05 29.6 79.85 29.375 77.425 29.375ZM75.775 22.4H79.1V25.525H75.775V22.4ZM90.023 27.85H110.973V30.55H90.023V27.85ZM98.823 22.725H102.148V28.6H98.823V22.725ZM98.723 13.1H101.523V13.925C101.523 18.8 98.023 22.675 92.123 23.75L90.823 21.125C95.973 20.325 98.723 17.125 98.723 13.925V13.1ZM99.398 13.1H102.198V13.925C102.198 17.125 104.948 20.225 110.223 21L108.948 23.625C102.948 22.575 99.398 18.8 99.398 13.925V13.1ZM91.748 11.825H109.173V14.475H91.748V11.825Z" fill="white"/>
<path d="M2.27063 30.32C2.96396 30.1867 3.63063 30.0533 4.27063 29.92C4.93729 29.7867 5.59063 29.6533 6.23063 29.52C6.23063 28.4 6.29729 27.1067 6.43063 25.64C6.59063 24.1467 6.89729 22.44 7.35063 20.52C7.05729 20.6533 6.76396 20.7733 6.47063 20.88C6.20396 20.96 5.93729 21.0267 5.67062 21.08C5.40396 21.1333 5.21729 21.1467 5.11063 21.12L4.55063 20.96C4.28396 20.9067 4.03063 20.8933 3.79063 20.92C3.57729 20.92 3.39063 20.7867 3.23063 20.52C3.17729 20.4133 3.09729 20.2267 2.99063 19.96C2.91063 19.6667 2.84396 19.4533 2.79063 19.32C2.41729 17.48 2.55063 15.88 3.19063 14.52C3.85729 13.1333 4.91063 12.0933 6.35063 11.4C6.53729 11.3733 6.77729 11.3733 7.07063 11.4C7.20396 11.4267 7.29729 11.4667 7.35063 11.52C7.40396 11.5733 7.48396 11.6267 7.59063 11.68C7.64396 11.7333 7.71063 11.7733 7.79063 11.8L8.11063 11.92C8.21729 11.9467 8.29729 11.9867 8.35063 12.04C8.43063 12.0933 8.45729 12.1333 8.43063 12.16C8.35063 12.2667 8.28396 12.3867 8.23063 12.52C8.17729 12.6267 8.07063 12.76 7.91063 12.92C7.16396 13.6667 6.52396 14.56 5.99063 15.6C5.45729 16.64 5.08396 17.72 4.87063 18.84C5.40396 18.84 5.95063 18.7467 6.51063 18.56C7.09729 18.3733 7.64396 18.1333 8.15063 17.84C8.68396 17.52 9.15063 17.1733 9.55063 16.8C9.95063 16.4267 10.244 16.0533 10.4306 15.68C10.4306 15.4133 10.324 15.1867 10.1106 15C9.89729 14.8133 9.64396 14.6667 9.35063 14.56C9.08396 14.4533 8.80396 14.3867 8.51063 14.36C8.21729 14.3067 7.99063 14.28 7.83063 14.28C7.93729 14.04 8.08396 13.8 8.27063 13.56C8.40396 13.3733 8.55063 13.2 8.71063 13.04C8.87063 12.88 9.05729 12.8 9.27063 12.8C9.45729 12.8 9.67063 12.8133 9.91063 12.84C10.1506 12.84 10.3773 12.8667 10.5906 12.92C10.804 12.9467 10.9906 13.0133 11.1506 13.12C11.3106 13.2 11.3906 13.3333 11.3906 13.52C11.7373 13.9467 11.8973 14.44 11.8706 15C11.8706 15.5333 11.724 16.0933 11.4306 16.68C11.164 17.24 10.7773 17.8 10.2706 18.36C9.76396 18.8933 9.19063 19.3733 8.55063 19.8C8.49729 21.5867 8.37729 23.2667 8.19063 24.84C8.00396 26.3867 7.80396 27.84 7.59063 29.2C9.35063 28.8 11.1106 28.36 12.8706 27.88C14.6573 27.4 16.644 26.8133 18.8306 26.12C18.884 26.0933 18.964 26.0667 19.0706 26.04C19.1773 26.0133 19.2573 26.0267 19.3106 26.08C19.3106 26.1067 19.2173 26.2133 19.0306 26.4L18.7906 26.64C18.764 26.6667 18.7373 26.6933 18.7106 26.72C18.7106 26.7467 18.6973 26.7733 18.6706 26.8C18.644 26.8533 18.5506 27 18.3906 27.24C18.2306 27.48 18.1106 27.6267 18.0306 27.68C16.804 28.4267 15.5106 29.08 14.1506 29.64C12.8173 30.2 11.4706 30.6933 10.1106 31.12C8.75063 31.5467 7.40396 31.9067 6.07063 32.2C4.73729 32.4933 3.47063 32.7333 2.27063 32.92C2.11063 32.9467 1.92396 32.9733 1.71062 33C1.49729 33 1.39063 32.9467 1.39063 32.84C1.36396 32.7067 1.36396 32.5467 1.39063 32.36C1.41729 32.1733 1.43063 32 1.43063 31.84C1.43063 31.68 1.48396 31.5333 1.59063 31.4C1.72396 31.2667 1.83063 31.1333 1.91063 31C1.99063 30.8667 2.05729 30.7333 2.11063 30.6C2.16396 30.4667 2.21729 30.3733 2.27063 30.32Z" fill="white"/>
</svg>
